<svg width="34" height="29" viewBox="0 0 34 29" fill="none" xmlns="http://www.w3.org/2000/svg">
<path d="M14.0872 1.41187H2.95673C2.58774 1.41187 2.23385 1.53818 1.97293 1.76303C1.71201 1.98788 1.56543 2.29283 1.56543 2.61081V12.2024C1.56543 12.5204 1.71201 12.8253 1.97293 13.0502C2.23385 13.275 2.58774 13.4013 2.95673 13.4013H14.0872C14.4562 13.4013 14.81 13.275 15.071 13.0502C15.3319 12.8253 15.4785 12.5204 15.4785 12.2024V2.61081C15.4785 2.29283 15.3319 1.98788 15.071 1.76303C14.81 1.53818 14.4562 1.41187 14.0872 1.41187ZM12.6959 11.0034H4.34804V3.80976H12.6959V11.0034Z" fill="#BFBFBF"/>
<path d="M30.7825 1.41187H19.652C19.283 1.41187 18.9292 1.53818 18.6682 1.76303C18.4073 1.98788 18.2607 2.29283 18.2607 2.61081V12.2024C18.2607 12.5204 18.4073 12.8253 18.6682 13.0502C18.9292 13.275 19.283 13.4013 19.652 13.4013H30.7825C31.1515 13.4013 31.5054 13.275 31.7663 13.0502C32.0272 12.8253 32.1738 12.5204 32.1738 12.2024V2.61081C32.1738 2.29283 32.0272 1.98788 31.7663 1.76303C31.5054 1.53818 31.1515 1.41187 30.7825 1.41187ZM29.3912 11.0034H21.0434V3.80976H29.3912V11.0034Z" fill="#BFBFBF"/>
<path d="M14.0872 15.7991H2.95673C2.58774 15.7991 2.23385 15.9254 1.97293 16.1502C1.71201 16.3751 1.56543 16.68 1.56543 16.998V26.5896C1.56543 26.9076 1.71201 27.2125 1.97293 27.4374C2.23385 27.6622 2.58774 27.7886 2.95673 27.7886H14.0872C14.4562 27.7886 14.81 27.6622 15.071 27.4374C15.3319 27.2125 15.4785 26.9076 15.4785 26.5896V16.998C15.4785 16.68 15.3319 16.3751 15.071 16.1502C14.81 15.9254 14.4562 15.7991 14.0872 15.7991ZM12.6959 25.3907H4.34804V18.197H12.6959V25.3907Z" fill="#BFBFBF"/>
<path d="M30.7825 15.7991H19.652C19.283 15.7991 18.9292 15.9254 18.6682 16.1502C18.4073 16.3751 18.2607 16.68 18.2607 16.998V26.5896C18.2607 26.9076 18.4073 27.2125 18.6682 27.4374C18.9292 27.6622 19.283 27.7886 19.652 27.7886H30.7825C31.1515 27.7886 31.5054 27.6622 31.7663 27.4374C32.0272 27.2125 32.1738 26.9076 32.1738 26.5896V16.998C32.1738 16.68 32.0272 16.3751 31.7663 16.1502C31.5054 15.9254 31.1515 15.7991 30.7825 15.7991ZM29.3912 25.3907H21.0434V18.197H29.3912V25.3907Z" fill="#BFBFBF"/>
</svg>
