<svg width="459" height="288" viewBox="0 0 459 288" fill="none" xmlns="http://www.w3.org/2000/svg">
<g filter="url(#filter0_d_1169_10)">
<path d="M24 32C24 25.3726 29.3726 20 36 20H422.985C429.613 20 434.985 25.3726 434.985 32V244.813C434.985 251.441 429.613 256.813 422.985 256.813H36C29.3726 256.813 24 251.441 24 244.813V32Z" fill="url(#paint0_linear_1169_10)"/>
<path d="M36 20.5H422.985C429.337 20.5 434.485 25.6487 434.485 32V244.813C434.485 251.165 429.337 256.313 422.985 256.313H36C29.6487 256.313 24.5 251.165 24.5 244.813V32C24.5 25.6487 29.6487 20.5 36 20.5Z" stroke="white" stroke-opacity="0.33"/>
</g>
<mask id="mask0_1169_10" style="mask-type:alpha" maskUnits="userSpaceOnUse" x="24" y="20" width="411" height="237">
<path d="M24 32C24 25.3726 29.3726 20 36 20H422.985C429.613 20 434.985 25.3726 434.985 32V244.813C434.985 251.441 429.613 256.813 422.985 256.813H36C29.3726 256.813 24 251.441 24 244.813V32Z" fill="url(#paint1_linear_1169_10)"/>
<path d="M36 20.5H422.985C429.337 20.5 434.485 25.6487 434.485 32V244.813C434.485 251.165 429.337 256.313 422.985 256.313H36C29.6487 256.313 24.5 251.165 24.5 244.813V32C24.5 25.6487 29.6487 20.5 36 20.5Z" stroke="white" stroke-opacity="0.33"/>
</mask>
<g mask="url(#mask0_1169_10)">
<path d="M30.2891 136.519C-48.7565 189.273 6.65498 262.977 44.2414 293.235C160.459 385.69 174.079 277.959 341.926 357.236C509.773 436.514 476.124 380.723 688.686 112.954C901.247 -154.814 622.553 -151.69 588.419 -99.2058C554.284 -46.7213 492.695 -71.2301 416.19 -152.062C339.685 -232.895 147.355 -90.3484 180.716 -4.4399C214.076 81.4686 129.096 70.5755 30.2891 136.519Z" stroke="white" stroke-opacity="0.33"/>
<path d="M65.2624 133.618C-5.95947 181.204 43.9814 247.707 77.8546 275.01C182.59 358.439 194.85 261.245 346.108 332.792C497.366 404.339 467.037 353.999 658.544 112.445C850.051 -129.11 598.919 -126.328 568.167 -78.9804C537.414 -31.633 481.913 -53.753 412.963 -126.69C344.014 -199.628 170.723 -71.047 200.795 6.46447C230.867 83.976 154.29 74.137 65.2624 133.618Z" stroke="white" stroke-opacity="0.33"/>
<path d="M92.3897 131.52C27.2448 174.998 72.9118 235.74 103.888 260.677C199.668 336.873 210.893 248.087 349.223 313.423C487.554 378.759 459.822 332.78 635.003 112.1C810.184 -108.58 580.501 -106.005 552.369 -62.7506C524.237 -19.4958 473.479 -39.6945 410.427 -106.312C347.376 -172.929 188.869 -55.4508 216.363 15.3502C243.857 86.1511 173.821 77.1736 92.3897 131.52Z" stroke="white" stroke-opacity="0.33"/>
<path d="M117.994 128.685C58.6137 168.343 100.247 223.76 128.486 246.512C215.801 316.032 226.026 235.036 352.127 294.652C478.228 354.268 452.945 312.32 612.615 111.015C772.285 -90.2905 562.915 -87.9612 537.275 -48.5035C511.635 -9.04583 465.364 -27.4769 407.884 -88.2553C350.403 -149.034 205.925 -41.8751 230.993 22.717C256.061 87.3089 192.218 79.1131 117.994 128.685Z" stroke="white" stroke-opacity="0.33"/>
<path d="M145.833 126.504C92.6997 162.033 129.965 211.701 155.239 232.094C233.386 294.406 242.525 221.824 355.381 275.267C468.237 328.71 445.605 291.115 588.465 110.742C731.324 -69.6316 543.961 -67.5753 521.021 -32.2196C498.081 3.1361 456.671 -13.3875 405.223 -67.8618C353.776 -122.336 224.498 -26.3287 246.94 31.5583C269.382 89.4453 212.249 82.0912 145.833 126.504Z" stroke="white" stroke-opacity="0.33"/>
<path d="M175.102 124.235C128.527 155.349 161.184 198.832 183.335 216.684C251.824 271.232 259.842 207.682 358.754 254.461C457.665 301.24 437.833 268.327 563.068 110.385C688.302 -47.5568 524.079 -45.7353 503.969 -14.777C483.858 16.1812 447.564 1.71863 402.477 -45.9706C357.389 -93.6598 244.068 -9.58587 263.732 41.0945C283.396 91.7749 233.32 85.3425 175.102 124.235Z" stroke="white" stroke-opacity="0.33"/>
</g>
<defs>
<filter id="filter0_d_1169_10" x="2" y="7" width="454.985" height="280.813" filterUnits="userSpaceOnUse" color-interpolation-filters="sRGB">
<feFlood flood-opacity="0" result="BackgroundImageFix"/>
<feColorMatrix in="SourceAlpha" type="matrix" values="0 0 0 0 0 0 0 0 0 0 0 0 0 0 0 0 0 0 127 0" result="hardAlpha"/>
<feOffset dy="9"/>
<feGaussianBlur stdDeviation="11"/>
<feColorMatrix type="matrix" values="0 0 0 0 0 0 0 0 0 0 0 0 0 0 0 0 0 0 0.12 0"/>
<feBlend mode="normal" in2="BackgroundImageFix" result="effect1_dropShadow_1169_10"/>
<feBlend mode="normal" in="SourceGraphic" in2="effect1_dropShadow_1169_10" result="shape"/>
</filter>
<linearGradient id="paint0_linear_1169_10" x1="229.493" y1="20" x2="229.493" y2="256.813" gradientUnits="userSpaceOnUse">
<stop stop-color="#FF7700"/>
<stop offset="1" stop-color="#FFCE08"/>
</linearGradient>
<linearGradient id="paint1_linear_1169_10" x1="418.237" y1="20" x2="9.29446" y2="168.027" gradientUnits="userSpaceOnUse">
<stop stop-color="white"/>
<stop offset="0.0001" stop-color="#F8F8FF"/>
<stop offset="1" stop-color="#F8F8FF"/>
</linearGradient>
</defs>
</svg>
