<svg width="460" height="288" viewBox="0 0 460 288" fill="none" xmlns="http://www.w3.org/2000/svg">
<g filter="url(#filter0_d_1169_789)">
<path d="M24.9854 32C24.9854 25.3726 30.3579 20 36.9854 20H423.971C430.598 20 435.971 25.3726 435.971 32V244.813C435.971 251.441 430.598 256.813 423.971 256.813H36.9853C30.3579 256.813 24.9854 251.441 24.9854 244.813V32Z" fill="url(#paint0_linear_1169_789)" fill-opacity="0.92"/>
<path d="M36.9854 20.5H423.971C430.322 20.5 435.471 25.6487 435.471 32V244.813C435.471 251.165 430.322 256.313 423.971 256.313H36.9854C30.6341 256.313 25.4854 251.165 25.4854 244.813V32C25.4854 25.6487 30.6341 20.5 36.9854 20.5Z" stroke="white" stroke-opacity="0.33"/>
</g>
<mask id="mask0_1169_789" style="mask-type:alpha" maskUnits="userSpaceOnUse" x="24" y="20" width="412" height="237">
<path d="M24.9854 32C24.9854 25.3726 30.3579 20 36.9854 20H423.971C430.598 20 435.971 25.3726 435.971 32V244.813C435.971 251.441 430.598 256.813 423.971 256.813H36.9853C30.3579 256.813 24.9854 251.441 24.9854 244.813V32Z" fill="url(#paint1_linear_1169_789)"/>
<path d="M36.9854 20.5H423.971C430.322 20.5 435.471 25.6487 435.471 32V244.813C435.471 251.165 430.322 256.313 423.971 256.313H36.9854C30.6341 256.313 25.4854 251.165 25.4854 244.813V32L25.5 31.4082C25.808 25.3319 30.8326 20.5 36.9854 20.5Z" stroke="white" stroke-opacity="0.33"/>
</mask>
<g mask="url(#mask0_1169_789)">
<path d="M31.2745 136.519C-47.7712 189.273 7.64033 262.977 45.2268 293.235C161.444 385.69 175.064 277.959 342.911 357.236C510.759 436.514 477.109 380.723 689.671 112.954C902.233 -154.814 623.539 -151.69 589.404 -99.2058C555.27 -46.7213 493.68 -71.2301 417.175 -152.062C340.67 -232.895 148.34 -90.3484 181.701 -4.4399C215.061 81.4686 130.082 70.5755 31.2745 136.519Z" stroke="white" stroke-opacity="0.33"/>
<path d="M66.2477 133.618C-4.97412 181.204 44.9668 247.707 78.8399 275.01C183.575 358.439 195.835 261.245 347.093 332.792C498.351 404.339 468.023 353.999 659.53 112.445C851.037 -129.11 599.904 -126.328 569.152 -78.9804C538.4 -31.633 482.898 -53.753 413.949 -126.69C344.999 -199.628 171.708 -71.047 201.78 6.46447C231.852 83.976 155.275 74.137 66.2477 133.618Z" stroke="white" stroke-opacity="0.33"/>
<path d="M93.3761 131.52C28.2311 174.998 73.8982 235.74 104.875 260.677C200.654 336.873 211.879 248.087 350.21 313.423C488.54 378.759 460.808 332.78 635.989 112.1C811.171 -108.58 581.487 -106.005 553.355 -62.7506C525.223 -19.4958 474.465 -39.6945 411.414 -106.312C348.362 -172.929 189.855 -55.4508 217.349 15.3502C244.843 86.1511 174.807 77.1736 93.3761 131.52Z" stroke="white" stroke-opacity="0.33"/>
<path d="M118.979 128.685C59.5991 168.343 101.232 223.76 129.471 246.512C216.786 316.032 227.011 235.036 353.112 294.652C479.214 354.268 453.931 312.32 613.601 111.015C773.27 -90.2905 563.901 -87.9612 538.26 -48.5035C512.62 -9.04583 466.349 -27.4769 408.869 -88.2553C351.389 -149.034 206.91 -41.8751 231.978 22.717C257.046 87.3089 193.204 79.1131 118.979 128.685Z" stroke="white" stroke-opacity="0.33"/>
<path d="M146.818 126.504C93.685 162.033 130.95 211.701 156.224 232.094C234.372 294.406 243.511 221.824 356.366 275.267C469.222 328.71 446.591 291.115 589.45 110.742C732.31 -69.6316 544.946 -67.5753 522.006 -32.2196C499.066 3.1361 457.656 -13.3875 406.209 -67.8618C354.761 -122.336 225.483 -26.3287 247.925 31.5583C270.368 89.4453 213.235 82.0912 146.818 126.504Z" stroke="white" stroke-opacity="0.33"/>
<path d="M176.087 124.235C129.513 155.349 162.17 198.832 184.32 216.684C252.809 271.232 260.827 207.682 359.739 254.461C458.651 301.24 438.818 268.327 564.053 110.385C689.288 -47.5568 525.064 -45.7353 504.954 -14.777C484.844 16.1812 448.55 1.71863 403.462 -45.9706C358.375 -93.6598 245.053 -9.58587 264.717 41.0945C284.382 91.7749 234.305 85.3425 176.087 124.235Z" stroke="white" stroke-opacity="0.33"/>
</g>
<defs>
<filter id="filter0_d_1169_789" x="2.98535" y="7" width="454.985" height="280.813" filterUnits="userSpaceOnUse" color-interpolation-filters="sRGB">
<feFlood flood-opacity="0" result="BackgroundImageFix"/>
<feColorMatrix in="SourceAlpha" type="matrix" values="0 0 0 0 0 0 0 0 0 0 0 0 0 0 0 0 0 0 127 0" result="hardAlpha"/>
<feOffset dy="9"/>
<feGaussianBlur stdDeviation="11"/>
<feColorMatrix type="matrix" values="0 0 0 0 0 0 0 0 0 0 0 0 0 0 0 0 0 0 0.12 0"/>
<feBlend mode="normal" in2="BackgroundImageFix" result="effect1_dropShadow_1169_789"/>
<feBlend mode="normal" in="SourceGraphic" in2="effect1_dropShadow_1169_789" result="shape"/>
</filter>
<linearGradient id="paint0_linear_1169_789" x1="230.478" y1="20" x2="230.478" y2="256.813" gradientUnits="userSpaceOnUse">
<stop stop-color="#FFCE08"/>
<stop offset="1" stop-color="#FF7700"/>
</linearGradient>
<linearGradient id="paint1_linear_1169_789" x1="419.222" y1="20" x2="22.9738" y2="168.527" gradientUnits="userSpaceOnUse">
<stop stop-color="white"/>
<stop offset="0.0001" stop-color="#F8F8FF"/>
<stop offset="1" stop-color="#F8F8FF"/>
</linearGradient>
</defs>
</svg>
