<svg width="460" height="285" viewBox="0 0 460 285" fill="none" xmlns="http://www.w3.org/2000/svg">
<path d="M24.9707 32C24.9707 25.3726 30.3433 20 36.9707 20H423.956C430.584 20 435.956 25.3726 435.956 32V244.813C435.956 251.441 430.584 256.813 423.956 256.813H36.9707C30.3433 256.813 24.9707 251.441 24.9707 244.813V32Z" fill="url(#paint0_linear_1169_29)"/>
<mask id="mask0_1169_29" style="mask-type:alpha" maskUnits="userSpaceOnUse" x="24" y="20" width="412" height="237">
<path d="M24.9707 32C24.9707 25.3726 30.3433 20 36.9707 20H423.956C430.584 20 435.956 25.3726 435.956 32V244.813C435.956 251.441 430.584 256.813 423.956 256.813H36.9707C30.3433 256.813 24.9707 251.441 24.9707 244.813V32Z" fill="url(#paint1_linear_1169_29)"/>
</mask>
<g mask="url(#mask0_1169_29)">
<path d="M31.2618 136.519C-47.7839 189.273 7.62763 262.977 45.2141 293.235C161.431 385.69 175.051 277.959 342.899 357.236C510.746 436.514 477.097 380.723 689.658 112.954C902.22 -154.814 623.526 -151.69 589.391 -99.2058C555.257 -46.7213 493.667 -71.2301 417.162 -152.062C340.657 -232.895 148.328 -90.3484 181.688 -4.4399C215.049 81.4686 130.069 70.5755 31.2618 136.519Z" stroke="white" stroke-opacity="0.13"/>
<path d="M66.2341 133.618C-4.98779 181.203 44.9531 247.707 78.8262 275.01C183.562 358.439 195.821 261.245 347.08 332.792C498.338 404.338 468.009 353.999 659.516 112.445C851.023 -129.11 599.891 -126.328 569.138 -78.9806C538.386 -31.6333 482.884 -53.7533 413.935 -126.691C344.986 -199.628 171.695 -71.0473 201.767 6.46423C231.839 83.9758 155.261 74.1368 66.2341 133.618Z" stroke="white" stroke-opacity="0.13"/>
<path d="M93.3605 131.52C28.2155 174.998 73.8825 235.74 104.859 260.677C200.639 336.873 211.864 248.087 350.194 313.423C488.524 378.759 460.792 332.78 635.974 112.1C811.155 -108.58 581.471 -106.005 553.34 -62.7506C525.208 -19.4958 474.449 -39.6945 411.398 -106.312C348.347 -172.929 189.84 -55.4508 217.333 15.3502C244.827 86.1511 174.792 77.1736 93.3605 131.52Z" stroke="white" stroke-opacity="0.13"/>
<path d="M118.966 128.685C59.5864 168.343 101.219 223.76 129.458 246.512C216.773 316.032 226.998 235.036 353.1 294.652C479.201 354.268 453.918 312.32 613.588 111.015C773.258 -90.2905 563.888 -87.9612 538.248 -48.5035C512.608 -9.04583 466.337 -27.4769 408.856 -88.2553C351.376 -149.034 206.897 -41.8751 231.965 22.717C257.033 87.3089 193.191 79.1131 118.966 128.685Z" stroke="white" stroke-opacity="0.13"/>
<path d="M146.804 126.504C93.6713 162.033 130.936 211.701 156.211 232.094C234.358 294.406 243.497 221.824 356.353 275.267C469.209 328.71 446.577 291.115 589.437 110.742C732.296 -69.6316 544.932 -67.5753 521.992 -32.2196C499.053 3.1361 457.642 -13.3875 406.195 -67.8618C354.748 -122.336 225.47 -26.3287 247.912 31.5583C270.354 89.4453 213.221 82.0912 146.804 126.504Z" stroke="white" stroke-opacity="0.13"/>
<path d="M176.073 124.235C129.499 155.349 162.156 198.832 184.307 216.684C252.796 271.232 260.814 207.682 359.725 254.461C458.637 301.24 438.805 268.327 564.039 110.385C689.274 -47.5568 525.051 -45.7353 504.94 -14.777C484.83 16.1812 448.536 1.71863 403.449 -45.9706C358.361 -93.6598 245.039 -9.58587 264.704 41.0945C284.368 91.7749 234.292 85.3425 176.073 124.235Z" stroke="white" stroke-opacity="0.13"/>
</g>
<defs>
<linearGradient id="paint0_linear_1169_29" x1="435.956" y1="10.9454" x2="9.13547" y2="163.613" gradientUnits="userSpaceOnUse">
<stop stop-color="#FFCE08"/>
<stop offset="1" stop-color="#FF7700"/>
</linearGradient>
<linearGradient id="paint1_linear_1169_29" x1="419.207" y1="20" x2="10.2652" y2="168.027" gradientUnits="userSpaceOnUse">
<stop stop-color="white"/>
<stop offset="0.0001" stop-color="#F8F8FF"/>
<stop offset="1" stop-color="#F8F8FF"/>
</linearGradient>
</defs>
</svg>
