<svg width="152" height="115" viewBox="0 0 152 115" fill="none" xmlns="http://www.w3.org/2000/svg">
<g clip-path="url(#clip0_1265_154)">
<path d="M60.9539 68.6014C55.4599 70.2279 50.4168 69.9673 45.6062 66.1715C45.0038 65.6962 44.2434 65.4563 43.6098 65.0173C38.1952 61.2658 32.6371 59.157 26.6008 61.7891C26.1785 61.9732 25.6453 61.9347 25.1585 61.9597C24.9236 61.9718 24.6768 61.8909 24.1248 61.8023C27.3745 59.1009 30.4397 56.5121 33.5625 53.9974C34.0777 53.5826 34.8259 53.2929 35.4984 53.2821C48.9048 53.0661 62.3159 52.8997 76.5763 52.7121C72.7217 57.2464 69.3271 61.2395 65.9325 65.2327C66.0872 65.4429 66.242 65.6531 66.3967 65.8634C73.6818 63.6255 80.9678 61.3904 88.2514 59.1485C91.8132 58.0521 95.3675 56.935 98.9326 55.8482C99.4989 55.6756 100.152 55.3769 100.684 55.5365C107.003 57.431 113.307 59.4014 120.514 61.6297C115.697 64.2428 111.77 66.4546 107.75 68.4912C106.868 68.9381 105.657 68.9345 104.597 68.8401C101.528 68.5664 98.4176 68.4368 95.3978 67.7228C83.6797 64.9522 72.4365 66.3351 60.9539 68.6014Z" fill="#FF8F2D"/>
<path d="M148.683 68.2846C132.751 63.374 117.04 58.3642 101.3 53.4982C100.127 53.1356 98.6816 53.6479 97.4554 54.0173C89.4241 56.4367 81.4182 58.9288 72.8901 60.7915C81.2894 51.0737 89.6887 41.3559 98.2249 31.4796C99.3343 32.2015 100.299 32.7821 101.219 33.4348C116.504 44.2752 131.788 55.1152 147.046 65.9999C147.791 66.5316 148.285 67.4713 148.683 68.2846Z" fill="#FF8F2D"/>
<path d="M24.7906 49.9843C29.6433 45.4902 34.3508 41.2553 38.9471 36.8955C40.179 35.727 41.04 35.3455 42.642 36.7125C47.9615 41.2514 53.4011 45.6327 59.5591 50.7041C53.1925 50.821 47.6405 51.3501 42.0813 50.9109C35.9142 50.4236 30.887 51.9961 26.9471 56.4702C24.2754 59.5041 19.723 60.5768 18.5778 65.2549C18.4423 65.8085 17.1807 66.0477 16.3906 66.2907C12.3755 67.5251 8.34366 68.7127 3.80646 69.3173C10.7389 62.9437 17.6713 56.5701 24.7906 49.9843Z" fill="#FF8F2D"/>
</g>
<defs>
<clipPath id="clip0_1265_154">
<rect width="151.444" height="114.885" fill="white"/>
</clipPath>
</defs>
</svg>
