<?xml version="1.0" standalone="no"?>
<!DOCTYPE svg PUBLIC "-//W3C//DTD SVG 20010904//EN"
 "http://www.w3.org/TR/2001/REC-SVG-20010904/DTD/svg10.dtd">
<svg version="1.0" xmlns="http://www.w3.org/2000/svg"
 width="500.000000pt" height="500.000000pt" viewBox="0 0 500.000000 500.000000"
 preserveAspectRatio="xMidYMid meet">

<g transform="translate(0.000000,500.000000) scale(0.100000,-0.100000)"
fill="#000000" stroke="none">
<path d="M390 2771 c-102 -33 -145 -55 -154 -76 -3 -9 -6 -50 -6 -91 0 -59 3
-74 15 -74 12 0 15 14 15 68 0 39 5 75 13 85 6 9 59 32 117 51 89 30 111 34
145 26 52 -12 176 -59 193 -73 11 -8 13 -40 10 -137 -3 -115 -5 -129 -30 -172
-33 -54 -33 -54 -13 -62 10 -3 24 10 42 42 26 44 28 56 32 175 1 70 0 139 -3
152 -4 14 -20 32 -38 41 -50 26 -199 74 -227 74 -14 -1 -64 -13 -111 -29z"/>
<path d="M1872 2703 l-93 -4 3 -42 3 -42 143 -3 143 -3 -3 48 -3 48 -50 1
c-27 0 -92 -1 -143 -3z"/>
<path d="M3462 2703 l-22 -4 2 -237 3 -237 43 -3 42 -3 0 245 0 246 -22 -1
c-13 -1 -33 -4 -46 -6z"/>
<path d="M4010 2703 c-20 -3 -39 -26 -86 -100 -33 -53 -64 -98 -70 -100 -5 -2
-36 42 -69 97 l-60 100 -57 0 -58 0 0 -240 0 -240 50 0 50 0 0 161 c0 96 4
158 9 154 5 -3 33 -44 62 -91 67 -109 75 -109 148 10 67 109 69 105 70 -91 l1
-143 45 0 45 0 0 239 c0 272 5 257 -80 244z"/>
<path d="M935 2688 c-3 -7 -1 -26 3 -43 l8 -30 104 -3 c57 -1 110 -8 117 -14
18 -15 16 -73 -3 -92 -12 -13 -38 -16 -120 -16 l-104 0 0 -129 0 -128 31 -7
c59 -11 58 -12 61 82 l3 87 76 5 c85 6 119 23 149 73 24 39 26 116 5 158 -30
57 -65 69 -203 69 -89 0 -124 -3 -127 -12z"/>
<path d="M1340 2678 c1 -67 1 -67 133 -70 l122 -3 9 -28 c8 -21 7 -35 -5 -55
-14 -26 -17 -27 -134 -32 l-120 -5 0 -130 0 -130 48 -3 47 -3 0 91 0 91 37 -3
c35 -3 38 -7 82 -90 l46 -88 53 0 c28 0 52 3 52 6 0 3 -17 36 -39 72 -67 117
-65 108 -28 130 87 51 90 200 4 252 -28 17 -51 20 -169 20 -136 0 -138 0 -138
-22z"/>
<path d="M2125 2683 c4 -10 36 -103 72 -208 93 -273 84 -255 136 -255 25 0 49
6 54 13 5 6 43 109 83 227 40 118 75 221 77 228 4 9 -10 12 -48 12 l-54 0 -50
-166 c-27 -91 -53 -168 -56 -170 -6 -4 -21 40 -84 249 l-26 87 -56 0 c-49 0
-54 -2 -48 -17z"/>
<path d="M2658 2685 c-14 -8 -36 -30 -47 -49 -19 -30 -21 -49 -21 -172 0 -210
20 -232 221 -241 l119 -6 0 45 0 45 -106 6 c-61 3 -112 11 -121 18 -21 18 -15
255 7 269 8 5 61 10 118 10 l102 0 0 45 0 45 -122 0 c-88 -1 -131 -5 -150 -15z"/>
<path d="M3000 2655 l0 -45 113 0 c75 0 117 -4 125 -12 20 -20 15 -86 -7 -98
-11 -5 -67 -10 -125 -10 l-106 0 0 -135 0 -135 45 0 45 0 0 90 0 90 35 0 c32
0 37 -4 74 -72 22 -40 43 -79 48 -86 9 -14 113 -30 113 -17 0 4 -22 44 -50 90
-27 46 -50 85 -50 89 0 3 13 12 30 21 41 21 60 63 60 132 -1 66 -14 96 -56
124 -25 16 -47 19 -161 19 l-133 0 0 -45z"/>
<path d="M4170 2661 l0 -38 61 -7 c34 -3 102 -6 150 -6 l89 0 0 45 0 45 -150
0 -150 0 0 -39z"/>
<path d="M458 2618 c-20 -5 -53 -25 -72 -44 -50 -49 -51 -99 -1 -148 46 -47
101 -63 155 -47 22 6 56 28 75 47 50 49 49 99 -1 148 -30 30 -92 59 -114 55
-3 -1 -22 -5 -42 -11z m95 -29 c42 -22 77 -62 77 -89 0 -27 -35 -67 -77 -89
-55 -28 -139 2 -173 62 -13 24 -13 30 0 54 34 60 118 90 173 62z"/>
<path d="M462 2538 c-21 -21 -14 -66 13 -84 23 -15 27 -15 50 0 17 11 25 26
25 44 0 35 -16 52 -50 52 -14 0 -31 -5 -38 -12z m63 -38 c0 -18 -6 -26 -23
-28 -24 -4 -38 18 -28 44 3 9 15 14 28 12 17 -2 23 -10 23 -28z"/>
<path d="M1782 2363 l3 -138 143 -3 142 -3 0 45 0 45 -92 3 -93 3 -3 53 -3 52
90 0 91 0 0 40 0 40 -140 0 -141 0 3 -137z"/>
<path d="M4177 2493 c-9 -8 -9 -151 0 -221 l6 -53 141 3 141 3 3 43 3 42 -85
0 c-113 0 -116 2 -116 61 l0 49 95 0 95 0 0 40 0 40 -138 0 c-76 0 -142 -3
-145 -7z"/>
<path d="M236 2452 c-10 -16 17 -81 53 -127 45 -59 135 -116 194 -122 49 -6
147 30 147 53 0 19 -10 18 -61 -6 -55 -24 -83 -25 -136 -1 -79 37 -139 106
-167 194 -6 18 -21 23 -30 9z"/>
</g>
</svg>
