<svg width="394" height="86" viewBox="0 0 394 86" fill="none" xmlns="http://www.w3.org/2000/svg">
<path d="M50.8312 62V17.2H69.2632C73.2312 17.2 76.6232 17.84 79.4392 19.12C82.2979 20.4 84.4952 22.2347 86.0312 24.624C87.5672 27.0133 88.3352 29.8507 88.3352 33.136C88.3352 36.4213 87.5672 39.2587 86.0312 41.648C84.4952 44.0373 82.2979 45.872 79.4392 47.152C76.6232 48.432 73.2312 49.072 69.2632 49.072H55.4392L59.1512 45.168V62H50.8312ZM59.1512 46.064L55.4392 42.032H68.8792C72.5485 42.032 75.3005 41.264 77.1352 39.728C79.0125 38.1493 79.9512 35.952 79.9512 33.136C79.9512 30.2773 79.0125 28.08 77.1352 26.544C75.3005 25.008 72.5485 24.24 68.8792 24.24H55.4392L59.1512 20.144V46.064ZM95.5632 62V27.824H103.179V37.232L102.283 34.48C103.307 32.176 104.907 30.4267 107.083 29.232C109.302 28.0373 112.054 27.44 115.339 27.44V35.056C114.998 34.9707 114.678 34.928 114.379 34.928C114.081 34.8853 113.782 34.864 113.483 34.864C110.454 34.864 108.043 35.76 106.251 37.552C104.459 39.3013 103.563 41.9253 103.563 45.424V62H95.5632ZM137.877 62.448C134.08 62.448 130.752 61.7013 127.893 60.208C125.077 58.672 122.88 56.5813 121.301 53.936C119.765 51.2907 118.997 48.2827 118.997 44.912C118.997 41.4987 119.744 38.4907 121.237 35.888C122.773 33.2427 124.864 31.1733 127.509 29.68C130.197 28.1867 133.248 27.44 136.661 27.44C139.989 27.44 142.955 28.1653 145.557 29.616C148.16 31.0667 150.208 33.1147 151.701 35.76C153.195 38.4053 153.941 41.52 153.941 45.104C153.941 45.4453 153.92 45.8293 153.877 46.256C153.877 46.6827 153.856 47.088 153.813 47.472H125.333V42.16H149.589L146.453 43.824C146.496 41.8613 146.091 40.1333 145.237 38.64C144.384 37.1467 143.211 35.9733 141.717 35.12C140.267 34.2667 138.581 33.84 136.661 33.84C134.699 33.84 132.971 34.2667 131.477 35.12C130.027 35.9733 128.875 37.168 128.021 38.704C127.211 40.1973 126.805 41.968 126.805 44.016V45.296C126.805 47.344 127.275 49.1573 128.213 50.736C129.152 52.3147 130.475 53.5307 132.181 54.384C133.888 55.2373 135.851 55.664 138.069 55.664C139.989 55.664 141.717 55.3653 143.253 54.768C144.789 54.1707 146.155 53.232 147.349 51.952L151.637 56.88C150.101 58.672 148.16 60.0587 145.813 61.04C143.509 61.9787 140.864 62.448 137.877 62.448ZM170.089 62L155.433 27.824H163.753L176.361 57.968H172.265L185.321 27.824H193.001L178.345 62H170.089ZM219.192 62.64C215.779 62.64 212.6 62.0853 209.656 60.976C206.755 59.824 204.216 58.224 202.04 56.176C199.907 54.0853 198.243 51.632 197.048 48.816C195.854 46 195.256 42.928 195.256 39.6C195.256 36.272 195.854 33.2 197.048 30.384C198.243 27.568 199.928 25.136 202.104 23.088C204.28 20.9973 206.819 19.3973 209.72 18.288C212.622 17.136 215.8 16.56 219.256 16.56C222.926 16.56 226.275 17.2 229.304 18.48C232.334 19.7173 234.894 21.5733 236.984 24.048L231.608 29.104C229.987 27.3547 228.174 26.0533 226.168 25.2C224.163 24.304 221.987 23.856 219.64 23.856C217.294 23.856 215.139 24.24 213.176 25.008C211.256 25.776 209.571 26.864 208.12 28.272C206.712 29.68 205.603 31.344 204.792 33.264C204.024 35.184 203.64 37.296 203.64 39.6C203.64 41.904 204.024 44.016 204.792 45.936C205.603 47.856 206.712 49.52 208.12 50.928C209.571 52.336 211.256 53.424 213.176 54.192C215.139 54.96 217.294 55.344 219.64 55.344C221.987 55.344 224.163 54.9173 226.168 54.064C228.174 53.168 229.987 51.824 231.608 50.032L236.984 55.152C234.894 57.584 232.334 59.44 229.304 60.72C226.275 62 222.904 62.64 219.192 62.64ZM244.188 62V27.824H251.804V37.232L250.908 34.48C251.932 32.176 253.532 30.4267 255.708 29.232C257.927 28.0373 260.679 27.44 263.964 27.44V35.056C263.623 34.9707 263.303 34.928 263.004 34.928C262.706 34.8853 262.407 34.864 262.108 34.864C259.079 34.864 256.668 35.76 254.876 37.552C253.084 39.3013 252.188 41.9253 252.188 45.424V62H244.188ZM270.751 62V27.824H278.751V62H270.751ZM274.783 22.192C273.289 22.192 272.052 21.7227 271.071 20.784C270.132 19.8453 269.663 18.7147 269.663 17.392C269.663 16.0267 270.132 14.896 271.071 14C272.052 13.0613 273.289 12.592 274.783 12.592C276.276 12.592 277.492 13.04 278.431 13.936C279.412 14.7893 279.903 15.8773 279.903 17.2C279.903 18.608 279.433 19.8027 278.495 20.784C277.556 21.7227 276.319 22.192 274.783 22.192ZM332.387 27.44C335.117 27.44 337.528 27.9733 339.619 29.04C341.752 30.1067 343.416 31.7493 344.611 33.968C345.805 36.144 346.403 38.96 346.403 42.416V62H338.403V43.44C338.403 40.4107 337.741 38.1493 336.419 36.656C335.096 35.1627 333.197 34.416 330.723 34.416C328.973 34.416 327.416 34.8 326.051 35.568C324.728 36.336 323.683 37.4667 322.915 38.96C322.189 40.4533 321.827 42.352 321.827 44.656V62H313.827V43.44C313.827 40.4107 313.165 38.1493 311.843 36.656C310.52 35.1627 308.621 34.416 306.147 34.416C304.397 34.416 302.84 34.8 301.475 35.568C300.152 36.336 299.107 37.4667 298.339 38.96C297.613 40.4533 297.251 42.352 297.251 44.656V62H289.251V27.824H296.867V36.912L295.523 34.224C296.675 32.0053 298.339 30.32 300.515 29.168C302.733 28.016 305.251 27.44 308.067 27.44C311.267 27.44 314.04 28.2293 316.387 29.808C318.776 31.3867 320.355 33.776 321.123 36.976L317.987 35.888C319.096 33.328 320.931 31.28 323.491 29.744C326.051 28.208 329.016 27.44 332.387 27.44ZM372.752 62.448C368.955 62.448 365.627 61.7013 362.768 60.208C359.952 58.672 357.755 56.5813 356.176 53.936C354.64 51.2907 353.872 48.2827 353.872 44.912C353.872 41.4987 354.619 38.4907 356.112 35.888C357.648 33.2427 359.739 31.1733 362.384 29.68C365.072 28.1867 368.123 27.44 371.536 27.44C374.864 27.44 377.83 28.1653 380.432 29.616C383.035 31.0667 385.083 33.1147 386.576 35.76C388.07 38.4053 388.816 41.52 388.816 45.104C388.816 45.4453 388.795 45.8293 388.752 46.256C388.752 46.6827 388.731 47.088 388.688 47.472H360.208V42.16H384.464L381.328 43.824C381.371 41.8613 380.966 40.1333 380.112 38.64C379.259 37.1467 378.086 35.9733 376.592 35.12C375.142 34.2667 373.456 33.84 371.536 33.84C369.574 33.84 367.846 34.2667 366.352 35.12C364.902 35.9733 363.75 37.168 362.896 38.704C362.086 40.1973 361.68 41.968 361.68 44.016V45.296C361.68 47.344 362.15 49.1573 363.088 50.736C364.027 52.3147 365.35 53.5307 367.056 54.384C368.763 55.2373 370.726 55.664 372.944 55.664C374.864 55.664 376.592 55.3653 378.128 54.768C379.664 54.1707 381.03 53.232 382.224 51.952L386.512 56.88C384.976 58.672 383.035 60.0587 380.688 61.04C378.384 61.9787 375.739 62.448 372.752 62.448Z" fill="white"/>
<path d="M11.9092 16.312C4.31707 18.9428 1.11648 20.6967 0.446594 22.3709C0.223297 23.0884 0 26.357 0 29.6255C0 34.3291 0.223297 35.525 1.11648 35.525C2.00967 35.525 2.23297 34.4089 2.23297 30.1039C2.23297 26.9947 2.60513 24.1247 3.20059 23.3275C3.64718 22.61 7.59209 20.7764 11.9092 19.2617C18.5336 16.87 20.1712 16.5512 22.7019 17.1889C26.5723 18.1456 35.8019 21.8925 37.0673 23.0086C37.886 23.6464 38.0349 26.1975 37.8116 33.9305C37.5883 43.0986 37.4394 44.2147 35.5786 47.6427C33.1224 51.9477 33.1224 51.9477 34.611 52.5855C35.3553 52.8246 36.3974 51.7882 37.7372 49.2371C39.6724 45.7294 39.8213 44.7727 40.119 35.2858C40.1934 29.7053 40.119 24.2045 39.8957 23.1681C39.598 22.052 38.4071 20.617 37.0673 19.8995C33.3457 17.8267 22.2553 14.0001 20.1712 14.0001C19.1291 14.0798 15.4075 15.0364 11.9092 16.312Z" fill="white"/>
<path d="M16.9708 28.5096C15.4821 28.9082 13.0259 30.5027 11.6117 32.0174C7.89005 35.9237 7.81562 39.9098 11.5372 43.8162C14.9611 47.5631 19.0549 48.8387 23.0742 47.5631C24.7117 47.0848 27.2424 45.3309 28.6567 43.8162C32.3783 39.9098 32.3038 35.9237 28.5822 32.0174C26.3493 29.6257 21.7345 27.3138 20.0969 27.6327C19.8736 27.7124 18.4594 28.0313 16.9708 28.5096ZM24.0419 30.8215C27.168 32.5754 29.7731 35.7643 29.7731 37.9168C29.7731 40.0693 27.168 43.2582 24.0419 45.012C19.9481 47.2443 13.6958 44.8526 11.1651 40.0693C10.1975 38.156 10.1975 37.6776 11.1651 35.7643C13.6958 30.981 19.9481 28.5893 24.0419 30.8215Z" fill="white"/>
<path d="M17.2682 34.8874C15.7051 36.5616 16.2261 40.1491 18.2358 41.5841C19.9478 42.7799 20.2455 42.7799 21.9574 41.5841C23.2228 40.7071 23.8182 39.5113 23.8182 38.0763C23.8182 35.2861 22.6273 33.9308 20.0966 33.9308C19.0546 33.9308 17.7892 34.3294 17.2682 34.8874ZM21.9574 37.9169C21.9574 39.3519 21.5108 39.9896 20.2455 40.1491C18.4591 40.468 17.4171 38.7141 18.1614 36.6413C18.3847 35.9238 19.2779 35.5252 20.2455 35.6847C21.5108 35.8441 21.9574 36.4819 21.9574 37.9169Z" fill="white"/>
<path d="M0.446743 41.743C-0.29758 43.0186 1.71209 48.2005 4.39165 51.8677C7.74111 56.5713 14.44 61.1154 18.8315 61.5938C22.4787 62.0721 29.7731 59.2021 29.7731 57.3685C29.7731 55.8538 29.0287 55.9335 25.2327 57.8468C21.1389 59.7602 19.0548 59.8399 15.1099 57.9265C9.22975 54.9768 4.76382 49.476 2.67971 42.4605C2.23312 41.0255 1.11663 40.6269 0.446743 41.743Z" fill="white"/>
</svg>
