<?xml version="1.0" encoding="UTF-8"?>
<svg xmlns="http://www.w3.org/2000/svg" xmlns:xlink="http://www.w3.org/1999/xlink" width="300px" height="300px" viewBox="0 0 300 300" version="1.1">
<g id="surface1">
<path style=" stroke:none;fill-rule:nonzero;fill:rgb(100%,56.078434%,17.647059%);fill-opacity:1;" d="M 151.433594 168.664062 C 143.34375 170.992188 135.992188 170.363281 129.121094 164.167969 C 128.261719 163.390625 127.160156 162.980469 126.25 162.257812 C 118.496094 156.105469 110.464844 152.539062 101.546875 156.429688 C 100.921875 156.703125 100.144531 156.621094 99.433594 156.636719 C 99.089844 156.648438 98.734375 156.507812 97.929688 156.34375 C 102.785156 152.222656 107.363281 148.273438 112.023438 144.441406 C 112.792969 143.808594 113.894531 143.382812 114.878906 143.394531 C 134.460938 143.636719 154.050781 143.953125 174.878906 144.273438 C 169.066406 151.257812 163.953125 157.414062 158.835938 163.566406 C 159.054688 163.902344 159.269531 164.242188 159.488281 164.578125 C 170.214844 161.363281 180.941406 158.152344 191.667969 154.933594 C 196.910156 153.355469 202.144531 151.746094 207.394531 150.1875 C 208.226562 149.941406 209.191406 149.496094 209.964844 149.773438 C 219.113281 153.035156 228.238281 156.414062 238.671875 160.242188 C 231.535156 164.15625 225.710938 167.476562 219.761719 170.511719 C 218.457031 171.179688 216.6875 171.121094 215.144531 170.929688 C 210.671875 170.363281 206.136719 170.023438 201.757812 168.765625 C 184.757812 163.890625 168.289062 165.585938 151.433594 168.664062 Z M 151.433594 168.664062 "/>
<path style=" stroke:none;fill-rule:nonzero;fill:rgb(100%,56.078434%,17.647059%);fill-opacity:1;" d="M 279.539062 171.78125 C 256.472656 163.347656 233.734375 154.765625 210.949219 146.40625 C 209.25 145.785156 207.121094 146.53125 205.3125 147.058594 C 193.492188 150.527344 181.703125 154.113281 169.175781 156.683594 C 181.828125 141.71875 194.480469 126.75 207.339844 111.539062 C 208.929688 112.726562 210.316406 113.683594 211.632812 114.753906 C 233.515625 132.515625 255.398438 150.277344 277.238281 168.105469 C 278.304688 168.976562 278.992188 170.480469 279.539062 171.78125 Z M 279.539062 171.78125 "/>
<path style=" stroke:none;fill-rule:nonzero;fill:rgb(100%,56.078434%,17.647059%);fill-opacity:1;" d="M 99.382812 137.554688 C 106.648438 130.675781 113.6875 124.195312 120.574219 117.519531 C 122.421875 115.726562 123.691406 115.164062 125.976562 117.390625 C 133.5625 124.78125 141.328125 131.925781 150.117188 140.191406 C 140.816406 140.101562 132.6875 140.695312 124.589844 139.761719 C 115.605469 138.726562 108.203125 140.992188 102.269531 147.878906 C 98.246094 152.550781 91.558594 154.042969 89.699219 161.375 C 89.480469 162.242188 87.628906 162.566406 86.464844 162.914062 C 80.550781 164.6875 74.617188 166.386719 67.96875 167.144531 C 78.347656 157.390625 88.722656 147.636719 99.382812 137.554688 Z M 99.382812 137.554688 "/>
</g>
</svg>
