<svg width="188" height="174" viewBox="0 0 188 174" fill="none" xmlns="http://www.w3.org/2000/svg">
<path d="M94.8972 97.8249C89.8296 99.1753 85.2218 98.8103 80.9155 95.2167C80.3762 94.7667 79.6865 94.5281 79.1177 94.1105C74.2576 90.5422 69.2251 88.4733 63.636 90.7302C63.245 90.888 62.7581 90.8394 62.3121 90.8501C62.0968 90.8553 61.873 90.7751 61.3702 90.6801C64.4113 88.29 67.2809 85.9982 70.2012 83.7756C70.683 83.409 71.3748 83.1627 71.9905 83.1697C84.2623 83.3084 96.5373 83.4925 109.59 83.6786C105.949 87.7306 102.743 91.2991 99.537 94.8676C99.6733 95.0638 99.8096 95.26 99.9459 95.4563C106.668 93.5914 113.39 91.7291 120.111 89.8605C123.397 88.9468 126.677 88.0138 129.967 87.1088C130.489 86.9651 131.094 86.7082 131.577 86.8676C137.311 88.7595 143.03 90.7205 149.567 92.94C145.095 95.2102 141.446 97.1353 137.717 98.8979C136.899 99.2848 135.791 99.2511 134.824 99.1381C132.022 98.8107 129.18 98.6141 126.434 97.885C115.782 95.0561 105.46 96.0394 94.8972 97.8249Z" fill="#FF8F2D"/>
<path d="M175.177 99.6338C160.723 94.7411 146.474 89.7632 132.194 84.9161C131.13 84.5548 129.795 84.9873 128.663 85.2946C121.254 87.3068 113.867 89.3862 106.017 90.8766C113.946 82.1958 121.875 73.5149 129.933 64.6926C130.93 65.3809 131.798 65.9363 132.623 66.5567C146.336 76.8586 160.05 87.1604 173.736 97.5023C174.405 98.0075 174.834 98.8797 175.177 99.6338Z" fill="#FF8F2D"/>
<path d="M62.279 79.7812C66.8318 75.791 71.2452 72.0343 75.56 68.1605C76.7165 67.1222 77.5138 66.7948 78.9453 68.0857C83.6987 72.3721 88.5659 76.5173 94.073 81.3119C88.2449 81.2592 83.1517 81.6041 78.0762 81.0627C72.4457 80.4622 67.8065 81.7749 64.0893 85.7697C61.5687 88.4786 57.3765 89.346 56.2114 93.5976C56.0735 94.1007 54.9132 94.2879 54.1841 94.4904C50.4795 95.5191 46.7607 96.5046 42.5941 96.9439C49.0969 91.2862 55.5997 85.6285 62.279 79.7812Z" fill="#FF8F2D"/>
</svg>
