<?xml version="1.0" standalone="no"?>
<!DOCTYPE svg PUBLIC "-//W3C//DTD SVG 20010904//EN"
 "http://www.w3.org/TR/2001/REC-SVG-20010904/DTD/svg10.dtd">
<svg version="1.0" xmlns="http://www.w3.org/2000/svg"
 width="500.000000pt" height="500.000000pt" viewBox="0 0 500.000000 500.000000"
 preserveAspectRatio="xMidYMid meet">

<g transform="translate(0.000000,500.000000) scale(0.100000,-0.100000)"
fill="#000000" stroke="none">
<path d="M2349 4325 c-97 -19 -198 -50 -554 -173 -457 -157 -542 -189 -673
-253 -259 -126 -274 -168 -288 -789 -7 -346 -3 -387 43 -417 15 -10 44 -18 66
-18 31 0 45 7 66 31 l28 31 6 354 c6 357 17 490 43 541 19 36 180 115 384 188
269 97 760 260 856 285 191 50 256 39 751 -129 609 -205 807 -287 837 -344 29
-55 37 -182 43 -652 6 -503 -1 -667 -37 -831 -41 -190 -132 -395 -240 -544
-81 -110 -87 -160 -28 -210 46 -39 101 -31 146 22 96 109 226 352 281 523 80
249 96 442 87 1050 -7 465 -14 575 -47 685 -43 144 -157 212 -652 386 -386
136 -696 238 -774 255 -107 22 -251 26 -344 9z"/>
<path d="M2340 3131 c-171 -37 -301 -110 -435 -245 -180 -182 -234 -320 -190
-491 38 -149 252 -375 437 -464 263 -125 560 -100 808 69 107 73 249 229 301
333 43 84 41 255 -5 346 -14 27 -49 78 -78 113 -162 195 -339 307 -543 343
-112 19 -189 18 -295 -4z m325 -118 c145 -35 304 -143 420 -287 85 -105 90
-117 90 -227 0 -94 -1 -97 -37 -152 -49 -73 -159 -189 -226 -239 -232 -172
-548 -183 -785 -29 -81 53 -160 127 -226 211 -65 82 -81 122 -81 213 0 90 15
127 90 222 200 253 473 357 755 288z"/>
<path d="M2405 2763 c-102 -35 -185 -151 -185 -258 0 -165 146 -300 303 -282
149 18 250 130 251 278 0 149 -106 263 -257 274 -43 4 -77 0 -112 -12z m180
-122 c71 -40 96 -149 51 -226 -32 -54 -86 -79 -156 -73 -88 9 -142 69 -142
158 0 130 132 205 247 141z"/>
<path d="M922 2240 c-49 -30 -58 -59 -44 -139 28 -165 133 -412 247 -581 192
-286 475 -524 833 -704 251 -126 354 -155 542 -155 190 0 298 31 552 160 214
109 258 149 243 218 -9 40 -58 81 -97 81 -18 0 -68 -20 -117 -47 -129 -70
-267 -136 -351 -169 -71 -28 -83 -29 -230 -29 -168 0 -167 0 -330 70 -365 156
-686 411 -873 693 -102 153 -172 312 -212 481 -29 119 -91 166 -163 121z"/>
</g>
</svg>
